<?xml version="1.0" encoding="UTF-8" standalone="no"?> <!-- Created with Vectornator for iOS (http://vectornator.io/) --><!DOCTYPE svg PUBLIC "-//W3C//DTD SVG 1.1//EN" "http://www.w3.org/Graphics/SVG/1.1/DTD/svg11.dtd">
<svg style="fill-rule:evenodd;clip-rule:evenodd;stroke-linecap:round;stroke-linejoin:round;" xmlns:vectornator="http://vectornator.io" xmlns:xlink="http://www.w3.org/1999/xlink" xmlns="http://www.w3.org/2000/svg" xml:space="preserve" version="1.1" viewBox="0 0 48 48">
<metadata>
<vectornator:setting key="DynamicGuides" value="1"/>
<vectornator:setting key="Units" value="Points"/>
<vectornator:setting key="GuidesVisible" value="1"/>
<vectornator:setting key="RulersVisible" value="1"/>
<vectornator:setting key="SnapToGuides" value="1"/>
<vectornator:setting key="GridSpacing" value="36"/>
</metadata>
<defs/>
<g id="Untitled" vectornator:layerName="Untitled">
<path d="M24+47.1887C36.9787+47.1887+47.5+36.8067+47.5+24C47.5+11.1932+36.9787+0.81133+24+0.81133C11.0213+0.81133+0.5+11.1932+0.5+24C0.5+36.8067+11.0213+47.1887+24+47.1887Z" fill-rule="evenodd" fill="#5ca73f" opacity="1"/>
<path d="M41.5+31.2381C41.5+32.9047+40.1438+34.261+38.477+34.261C37.6437+34.261+36.8878+33.9217+36.3406+33.3746L26.9801+38.0548C26.9996+38.1937+27.0229+38.3326+27.0229+38.477C27.0229+40.1438+25.6667+41.5+24+41.5C22.3333+41.5+20.9771+40.1438+20.9771+38.477C20.9771+38.3326+20.9999+38.1937+21.0199+38.0548L11.6594+33.3746C11.1122+33.9217+10.3563+34.261+9.52293+34.261C7.85627+34.261+6.5+32.9047+6.5+31.2381C6.5+29.5714+7.85627+28.2151+9.52293+28.2151C9.79791+28.2151+10.0594+28.2636+10.3129+28.3335L13.2016+24L10.3125+19.666C10.0594+19.735+9.79791+19.7839+9.52293+19.7839C7.85627+19.7839+6.5+18.4276+6.5+16.761C6.5+15.0943+7.85627+13.7381+9.52293+13.7381C10.3567+13.7381+11.1127+14.0773+11.6603+14.6254L21.0199+9.94519C20.9999+9.80584+20.9771+9.66741+20.9771+9.52293C20.9771+7.85627+22.3333+6.5+24+6.5C25.6667+6.5+27.0229+7.85627+27.0229+9.52293C27.0229+9.66741+26.9996+9.80584+26.9801+9.94519L36.3397+14.6254C36.8868+14.0773+37.6428+13.7381+38.477+13.7381C40.1438+13.7381+41.5+15.0943+41.5+16.761C41.5+18.4276+40.1438+19.7839+38.477+19.7839C38.2021+19.7839+37.9411+19.735+37.6875+19.666L34.7979+24L37.6875+28.3335C37.9411+28.2636+38.2021+28.2151+38.477+28.2151C40.1438+28.2151+41.5+29.5714+41.5+31.2381ZM33.6513+25.7207L32.6326+27.2485L35.689+28.7772L33.6513+25.7207ZM29.8446+27.9896L26.1374+26.1355C25.5902+26.6836+24.8338+27.0229+24+27.0229C23.1662+27.0229+22.4102+26.6836+21.8626+26.1355L18.1554+27.9896L23.2105+35.5716C23.4641+35.5026+23.725+35.4541+24+35.4541C24.275+35.4541+24.5365+35.5026+24.7895+35.5725L29.8446+27.9896ZM18.156+20.01L21.8635+21.864C22.4107+21.3164+23.1666+20.9771+24+20.9771C24.8334+20.9771+25.5893+21.3164+26.1365+21.864L29.8436+20.01L24.7891+12.428C24.5359+12.4974+24.2745+12.5459+24+12.5459C23.7255+12.5459+23.4641+12.4974+23.2109+12.428L18.156+20.01ZM24+22.8861C23.3858+22.8861+22.8861+23.3858+22.8861+24C22.8861+24.6142+23.3858+25.1139+24+25.1139C24.6142+25.1139+25.1139+24.6142+25.1139+24C25.1139+23.3858+24.6142+22.8861+24+22.8861ZM17.0886+21.6109L15.4961+24L17.0882+26.3881L21.0199+24.4223C20.9999+24.2829+20.9771+24.1445+20.9771+24C20.9771+23.855+20.9999+23.7162+21.0199+23.5768L17.0886+21.6109ZM30.9118+26.3881L32.5039+24L30.9109+21.6109L26.9801+23.5768C26.9996+23.7162+27.0229+23.855+27.0229+24C27.0229+24.1445+26.9996+24.2829+26.9801+24.4223L30.9118+26.3881ZM33.6513+22.2793L35.689+19.2219L32.6316+20.7506L33.6513+22.2793ZM37.3632+16.761C37.3632+17.3753+37.8628+17.8749+38.477+17.8749C39.0914+17.8749+39.591+17.3753+39.591+16.761C39.591+16.1467+39.0914+15.6471+38.477+15.6471C37.8628+15.6471+37.3632+16.1467+37.3632+16.761ZM35.4541+16.761C35.4541+16.6165+35.4775+16.4781+35.497+16.3388L26.7871+11.9833L31.5643+19.1496L35.497+17.1832C35.4775+17.0439+35.4541+16.9055+35.4541+16.761ZM22.8861+9.52293C22.8861+10.1372+23.3858+10.6368+24+10.6368C24.6142+10.6368+25.1139+10.1372+25.1139+9.52293C25.1139+8.90865+24.6142+8.40902+24+8.40902C23.3858+8.40902+22.8861+8.90865+22.8861+9.52293ZM12.503+16.3388C12.5231+16.4781+12.5459+16.6165+12.5459+16.761C12.5459+16.9055+12.5231+17.0439+12.503+17.1832L16.4352+19.1496L21.2134+11.9833L12.503+16.3388ZM9.52293+17.8749C10.1372+17.8749+10.6368+17.3753+10.6368+16.761C10.6368+16.1467+10.1372+15.6471+9.52293+15.6471C8.90865+15.6471+8.40902+16.1467+8.40902+16.761C8.40902+17.3753+8.90865+17.8749+9.52293+17.8749ZM14.3491+22.2793L15.368+20.7506L12.311+19.2219L14.3491+22.2793ZM14.3491+25.7207L12.311+28.7772L15.3674+27.2485L14.3491+25.7207ZM10.6368+31.2381C10.6368+30.6237+10.1372+30.1241+9.52293+30.1241C8.90865+30.1241+8.40902+30.6237+8.40902+31.2381C8.40902+31.8523+8.90865+32.352+9.52293+32.352C10.1372+32.352+10.6368+31.8523+10.6368+31.2381ZM12.5459+31.2381C12.5459+31.3825+12.5231+31.5214+12.503+31.6612L21.2124+36.0162L16.4348+28.85L12.503+30.8158C12.5231+30.9547+12.5459+31.0936+12.5459+31.2381ZM25.1139+38.477C25.1139+37.8628+24.6142+37.3632+24+37.3632C23.3858+37.3632+22.8861+37.8628+22.8861+38.477C22.8861+39.0914+23.3858+39.591+24+39.591C24.6142+39.591+25.1139+39.0914+25.1139+38.477ZM35.497+31.6612C35.4775+31.5214+35.4541+31.3825+35.4541+31.2381C35.4541+31.0936+35.4775+30.9547+35.497+30.8158L31.5652+28.85L26.788+36.0162L35.497+31.6612ZM39.591+31.2381C39.591+30.6237+39.0914+30.1241+38.477+30.1241C37.8628+30.1241+37.3632+30.6237+37.3632+31.2381C37.3632+31.8523+37.8628+32.352+38.477+32.352C39.0914+32.352+39.591+31.8523+39.591+31.2381Z" fill-rule="evenodd" fill="#191919" opacity="1"/>
</g>
</svg>
